<?xml version="1.0" encoding="iso-8859-1"?>
<!-- Generator: Adobe Illustrator 19.0.0, SVG Export Plug-In . SVG Version: 6.00 Build 0)  -->
<svg version="1.1" id="Capa_1" xmlns="http://www.w3.org/2000/svg" xmlns:xlink="http://www.w3.org/1999/xlink" x="0px" y="0px"
	 viewBox="0 0 295.84 295.84" style="enable-background:new 0 0 295.84 295.84;" xml:space="preserve">
<g>
	<path d="M90.644,34.525L60.75,61.591c-3.035,2.897-3.211,7.64-0.457,10.655c1.324,1.586,3.444,2.594,5.771,2.594h35.807
		c4.231,0,7.547-3.218,7.547-7.449c0-4.289-3.315-7.551-7.547-7.551H85.578l15.212-13.922c5.483-4.955,8.628-12.117,8.628-19.515
		c0-6.659-2.412-12.951-6.771-17.62c-4.955-5.483-12.04-8.646-19.437-8.646c-6.658,0-12.91,2.402-17.578,6.76l-3.136,2.826
		c-3.073,2.805-3.32,7.483-0.531,10.689c1.465,1.605,3.515,2.526,5.624,2.526c1.861,0,3.661-0.71,5.062-1.988l3.105-2.807
		c2.073-1.825,4.721-2.83,7.454-2.83c3.219,0,6.129,1.269,8.182,3.558c1.852,2.104,2.83,4.682,2.83,7.454
		C94.223,29.59,92.987,32.423,90.644,34.525z"/>
	<path d="M115.019,60.006c1.262,1.107,2.844,1.834,4.704,1.834h29.197v5.333c0,4.231,3.269,7.547,7.5,7.547s7.5-3.315,7.5-7.547
		v-5.726c4-0.466,6.658-3.587,6.658-7.487c0-3.831-2.658-7.004-6.658-7.485V7.363c0-2.723-0.916-4.265-1.585-4.973
		c-0.666-0.708-1.965-1.946-4.187-2.273c-2.688-0.395-4.584,0.167-6.686,2.269c-0.666,0.788-37.684,46.902-37.684,46.902
		c-1.297,1.637-1.851,3.729-1.597,5.741C112.425,56.967,113.445,58.785,115.019,60.006z M148.92,29.17v17.67h-13.318L148.92,29.17z"
		/>
	<path d="M189.369,74.72c4.289,0,7.551-3.315,7.551-7.547V44.84h22v22.333c0,4.231,3.218,7.547,7.449,7.547
		c4.289,0,7.551-3.315,7.551-7.547V7.665c0-4.232-3.262-7.548-7.551-7.548c-4.231,0-7.449,3.316-7.449,7.548V29.84h-22V7.665
		c0-4.232-3.262-7.548-7.551-7.548c-4.231,0-7.449,3.316-7.449,7.548v59.508C181.92,71.405,185.138,74.72,189.369,74.72z"/>
	<path d="M235.002,88.84H61.504c-24.951,0-45.584,20.14-45.584,45.091v0.5c0,24.951,20.633,45.409,45.584,45.409h0.563
		l-16.616,68.527c-0.236,0.756-0.531,1.479-0.531,2.313v37c0,4.418,3.915,8.159,8.333,8.159h190c4.418,0,7.667-3.741,7.667-8.159
		v-37c0-0.957-0.01-1.792-0.319-2.642l-16.458-68.199h0.859c24.951,0,44.918-20.458,44.918-45.409v-0.5
		C279.92,108.98,259.953,88.84,235.002,88.84z M63.415,242.84l25.174-105h118.859l25.567,105H63.415z"/>
	<circle cx="119.599" cy="156.168" r="9.091"/>
	<circle cx="148.008" cy="156.168" r="9.091"/>
	<circle cx="176.416" cy="156.168" r="9.091"/>
	<circle cx="119.599" cy="184.576" r="9.091"/>
	<circle cx="148.008" cy="184.576" r="9.091"/>
	<circle cx="176.416" cy="184.576" r="9.091"/>
	<path d="M119.599,203.895c-5.022,0-9.091,4.067-9.091,9.091c0,5.02,4.068,9.09,9.091,9.09c5.021,0,9.09-4.07,9.09-9.09
		C128.689,207.962,124.619,203.895,119.599,203.895z"/>
	<path d="M148.008,203.895c-5.021,0-9.091,4.067-9.091,9.091c0,5.02,4.069,9.09,9.091,9.09s9.09-4.07,9.09-9.09
		C157.098,207.962,153.029,203.895,148.008,203.895z"/>
	<path d="M176.416,203.895c-5.021,0-9.091,4.067-9.091,9.091c0,5.02,4.069,9.09,9.091,9.09s9.092-4.07,9.092-9.09
		C185.508,207.962,181.438,203.895,176.416,203.895z"/>
</g>
<g>
</g>
<g>
</g>
<g>
</g>
<g>
</g>
<g>
</g>
<g>
</g>
<g>
</g>
<g>
</g>
<g>
</g>
<g>
</g>
<g>
</g>
<g>
</g>
<g>
</g>
<g>
</g>
<g>
</g>
</svg>
